<svg viewBox="0 0 135 30" fill="none" xmlns="http://www.w3.org/2000/svg">
<path fill-rule="evenodd" clip-rule="evenodd" d="M65.7541 24.4765H59.4772V1.87433H65.7541V24.4765Z" fill="white"/>
<path fill-rule="evenodd" clip-rule="evenodd" d="M85.1059 10.1276C86.4686 8.44561 88.0854 7.65146 90.3041 7.65146C94.7117 7.65146 96.201 10.5728 96.201 14.1275V24.4765H89.8919V15.3021C89.8919 13.524 89.2262 12.6991 87.7676 12.6991C85.9926 12.6991 85.3585 13.9053 85.3585 15.4613V24.4765H79.0816V8.09579H85.1051V10.1276H85.1059Z" fill="white"/>
<path fill-rule="evenodd" clip-rule="evenodd" d="M103.96 15.5882C103.96 17.7153 104.975 18.9215 106.75 18.9215C108.557 18.9215 109.54 17.7153 109.54 15.5882C109.54 13.4933 108.526 12.2863 106.718 12.2863C104.943 12.2863 103.96 13.4933 103.96 15.5882ZM115.468 22.1595C115.468 28.0958 112.235 30 106.783 30C102.788 30 98.9836 29.0475 98.4124 24.6033H104.658C104.975 25.6827 105.577 26.064 106.972 26.064C109.159 26.064 109.413 24.7617 109.413 23.1112V21.2385C108.208 22.6983 106.749 23.3018 104.784 23.3018C100.473 23.3018 97.8727 20.3813 97.8727 15.5243C97.8727 10.6988 100.6 7.62 104.848 7.62C107.036 7.62 108.304 8.38183 109.413 10.0638V8.09504H115.467V22.1595H115.468Z" fill="white"/>
<path fill-rule="evenodd" clip-rule="evenodd" d="M123.302 16.287C123.302 18.0966 123.714 20.4451 126.028 20.4451C128.375 20.4451 128.724 18.032 128.724 16.2232C128.724 14.382 128.312 12.1595 125.965 12.1595C124.19 12.1595 123.302 13.5248 123.302 16.287ZM135 16.2232C135 21.3661 131.323 24.9532 126.028 24.9532C120.702 24.9532 117.024 21.43 117.024 16.287C117.024 11.144 120.735 7.62079 126.09 7.62079C131.354 7.61998 135 11.1117 135 16.2232Z" fill="white"/>
<path fill-rule="evenodd" clip-rule="evenodd" d="M33.9831 11.7151C32.3033 11.7151 31.2884 12.6361 30.9713 14.5088H36.8682C36.71 12.8268 35.8226 11.7151 33.9831 11.7151ZM34.1743 24.9523C29.0705 24.9523 24.9163 21.9373 24.9163 16.4768C24.9163 11.3653 28.6889 7.68295 33.9524 7.68295C39.4677 7.68295 42.9869 11.3976 42.9869 17.1748V17.6506H30.9406C31.0358 19.7463 32.2089 20.9201 34.142 20.9201C35.3788 20.9201 36.1396 20.5396 36.773 19.5556H42.6384C41.6242 23.2388 37.7242 24.9523 34.1743 24.9523Z" fill="white"/>
<path fill-rule="evenodd" clip-rule="evenodd" d="M57.5465 13.4295C56.5001 13.0805 55.9612 12.9843 55.2326 12.9843C52.6646 12.9843 51.3334 14.508 51.3334 17.0472V24.4757H45.088V8.09502H51.0792L51.0486 10.635C52.1902 8.66618 53.5843 7.65067 55.9305 7.65067C56.6276 7.65067 56.8817 7.71449 57.5473 7.93666V13.4295H57.5465Z" fill="white"/>
<path fill-rule="evenodd" clip-rule="evenodd" d="M19.577 12.044C21.2898 11.0285 22.3991 9.72694 22.3991 7.50445C22.3991 2.83811 18.1199 1.8533 14.3788 1.8533H0V6.99548H13.3009C14.9169 6.99548 15.7108 7.59898 15.7108 8.77365C15.7108 9.85217 14.9177 10.4872 13.6188 10.4872H11.7179V14.8368H13.9988C15.71 14.8368 16.6297 15.5987 16.6297 16.9955C16.6297 18.3923 15.7422 19.0911 13.9988 19.0911H9.7187V9.20183H2.99725V24.4563H14.854C19.2615 24.4563 23.5093 22.9003 23.5093 17.599C23.5085 14.6785 22.1135 12.9326 19.577 12.044Z" fill="white"/>
<path fill-rule="evenodd" clip-rule="evenodd" d="M76.0036 24.4764H69.7267V8.09576H76.0036V24.4764Z" fill="white"/>
<path fill-rule="evenodd" clip-rule="evenodd" d="M76.3272 3.31315C76.3272 5.29408 74.9104 6.67636 72.8708 6.67636C70.8192 6.67636 69.4024 5.31913 69.4024 3.33819C69.4024 1.35726 70.8313 3.6371e-07 72.895 3.6371e-07C74.9225 -0.000807521 76.3272 1.34433 76.3272 3.31315Z" fill="white"/>
</svg>
