<svg width="161" height="6" viewBox="0 0 161 6" fill="none" xmlns="http://www.w3.org/2000/svg">
<path id="Vector" d="M0.372314 5.07131C7.00995 4.31609 13.6599 3.70469 20.318 3.16783L30.3087 2.40853L40.3081 1.75636C53.6483 0.994154 67.0072 0.527746 80.3749 0.30706C87.0588 0.15916 93.745 0.155087 100.435 0.116656C102.107 0.109669 103.778 0.157417 105.45 0.187114L110.466 0.293084L115.48 0.456123C117.151 0.521921 118.82 0.641875 120.49 0.732711L130.502 1.41224C133.834 1.72493 137.165 2.03179 140.492 2.39339L145.48 2.92792L150.453 3.60977C153.765 4.09307 157.075 4.57055 160.372 5.1342L160.336 5.48182C146.954 5.19301 133.663 4.48902 120.338 4.22409C107.024 3.91548 93.7163 3.17888 80.3831 3.10319C67.054 2.9745 53.7162 3.09096 40.3836 3.50321C27.0492 3.85491 13.7172 4.4867 0.405662 5.4201L0.372314 5.07131Z" fill="#5CB9FE"/>
</svg>
