<svg width="140" height="6" viewBox="0 0 140 6" fill="none" xmlns="http://www.w3.org/2000/svg">
<path id="Vector" d="M0.127808 5.37071C5.89172 4.68456 11.6663 4.12909 17.448 3.64133L26.1236 2.95148L34.8068 2.35897C46.391 1.66648 57.9914 1.24274 69.5995 1.04224C75.4035 0.907864 81.2096 0.904164 87.0187 0.869248C88.471 0.8629 89.9223 0.906281 91.374 0.933261L95.7294 1.02954L100.084 1.17766C101.534 1.23744 102.984 1.34643 104.434 1.42895L113.128 2.04633C116.022 2.33041 118.915 2.60921 121.803 2.93773L126.134 3.42337L130.453 4.04285C133.329 4.48194 136.203 4.91575 139.067 5.42784L139.035 5.74367C127.414 5.48127 115.873 4.84168 104.302 4.60098C92.741 4.32059 81.1847 3.65138 69.6066 3.58261C58.0321 3.46569 46.4499 3.57149 34.8723 3.94604C23.2932 4.26557 11.7161 4.83957 0.156765 5.68759L0.127808 5.37071Z" fill="white"/>
</svg>
